<svg xmlns="http://www.w3.org/2000/svg" viewBox="0 0 1240.94 4008.12"><defs><style>.cls-1{fill:#3a403d;}.cls-2{fill:#575a57;}.cls-3,.cls-5,.cls-6{fill:#c4c1bf;}.cls-13,.cls-15,.cls-16,.cls-17,.cls-18,.cls-21,.cls-3,.cls-5,.cls-6{stroke:#1d1d1b;stroke-miterlimit:10;}.cls-4{fill:#787976;}.cls-5{stroke-width:0.75px;}.cls-15,.cls-6{stroke-width:0.1px;}.cls-7{fill:#7e7e7e;}.cls-8{fill:#939190;}.cls-9{fill:#595e62;}.cls-10{fill:#7d797a;}.cls-11{fill:#595e5a;}.cls-12{fill:#595b50;}.cls-13,.cls-15,.cls-16,.cls-17,.cls-18{fill:none;}.cls-13{stroke-width:2px;}.cls-14{fill:#616367;}.cls-16{stroke-width:0.2px;}.cls-17{stroke-width:0.25px;}.cls-19{fill:#4a4c4e;}.cls-20{fill:#565656;}.cls-21{fill:#636466;}.cls-22{fill:#666f71;}.cls-23{fill:#3b3e3a;}.cls-24{fill:#575c60;}.cls-25{fill:#202621;}.cls-26{fill:#3a3b35;}.cls-27{fill:#8a8c91;}.cls-28{fill:#54504e;}.cls-29{fill:#514e4d;}.cls-30{fill:#5c5c5c;}.cls-31{fill:#737471;}.cls-32{fill:#8b8d8f;}.cls-33{fill:#5e6162;}.cls-34{fill:#505354;}.cls-35{fill:#1c1e20;}.cls-36{fill:#afb1b3;}.cls-37{fill:#656769;}.cls-38{fill:#484848;}.cls-39{fill:#9b9ca0;}.cls-40{fill:#272a27;}.cls-41{fill:#434239;}.cls-42{fill:#565a5c;}.cls-43{fill:#4e4748;}.cls-44{fill:#555757;}</style></defs><title>Recurso 1</title><g id="Capa_2" data-name="Capa 2"><g id="Capa_1-2" data-name="Capa 1"><polygon class="cls-1" points="455.96 238.02 448.27 621.86 412.29 621.86 417.56 238.02 455.96 238.02"/><polygon class="cls-2" points="440.25 634.62 435.51 954.53 412.29 947.69 412.29 647.44 440.25 634.62"/><polygon class="cls-3" points="412.29 947.69 582.38 990.96 587.44 1282.06 384.28 1248.78 381.78 954.53 412.29 947.69"/><polygon class="cls-3" points="394.54 1740.09 412.29 1253.39 587.44 1282.06 587.44 1770.8 394.54 1740.09"/><polygon class="cls-4" points="349.81 2141.81 394.54 2144.38 394.6 1737.52 349.81 1740.09 349.81 2141.81"/><polygon class="cls-5" points="564.75 2257.83 564.75 1966.01 757.92 1988.31 757.92 1988.31 754.5 2167.4 742.53 2307.29 564.75 2257.83"/><polygon class="cls-3" points="800.54 2513.75 757.92 2691.13 783.5 2732.1 742.53 2769.59 708.46 2769.59 706.75 2631.41 684.52 2639.96 556.59 2752.56 473 2699.68 582.05 2280.85 730.62 2361.88 730.62 2462.51 800.54 2513.75"/><polygon class="cls-6" points="162.56 2554.66 496.48 2609.57 536.14 2232.25 176.18 2152.07 162.56 2554.66"/><polygon class="cls-7" points="162.56 2554.66 176.18 2152.07 126.72 2177.66 107.97 2544.4 162.56 2554.66"/><polygon class="cls-8" points="131.65 2548.87 339.95 2583.86 349.35 2629.7 287.07 2633.12 131.65 2548.87"/><polygon class="cls-6" points="258.06 2914.62 270.03 2849.77 349.35 2629.7 556.99 2754.73 453.14 3003.34 258.06 2914.62"/><polygon class="cls-6" points="258.06 3003.34 240.5 3115.87 40.49 3184.41 43.91 2781.83 275.1 2718.42 275.1 2718.42 258.06 3003.34"/><polygon class="cls-9" points="0.5 2795.18 12.41 2769.59 251.22 2704.81 275.1 2718.42 0.5 2795.18"/><polygon class="cls-6" points="528.18 2823.72 473 2955.79 473 3102.26 735.75 3057.93 737.4 2795.18 528.18 2823.72"/><polygon class="cls-6" points="749.37 3051.09 462.8 3211.44 483.26 3666.9 725.49 3474.13 725.49 3474.13 771.53 3475.84 771.53 3475.84 749.37 3051.09"/><polygon class="cls-10" points="349.81 1253.39 384.28 1248.78 381.78 947.69 349.81 954.53 349.81 1253.39"/><polyline class="cls-11" points="412.29 1253.39 367.04 1253.39 349.81 1740.09 394.54 1740.09 412.29 1253.39"/><path class="cls-12" d="M582.38,991l50.12,12.43V860.67c68.07,61,118.65,137.72,125.36,254.2,31.57,2.43,57.09,16.77,80.17,35.84-10.92,243.61-36.17,531-68.2,839.3h0l-205.14-23.94v-23.81l181.72,23.81L783.5,1613l-196.06-52.88v-76.75H784.36l-6-163.77h22.17l-2.56-58,2.56-29H786.48l-6.38-75.5-1.71-42.22H584.56Z"/><polyline class="cls-13" points="448.27 621.86 517.39 621.86 632.49 721.63"/><polygon class="cls-6" points="632.49 330.17 632.49 721.63 517.39 621.86 448.27 621.86 455.96 238.02 632.49 330.17"/><polygon class="cls-14" points="412.29 648.76 525.02 652.57 632.49 744.72 629.99 723.8 515.95 625.15 410.78 625.15 412.29 648.76"/><line class="cls-15" x1="483.79" y1="252.56" x2="483.79" y2="621.86"/><line class="cls-15" x1="516.08" y1="269.39" x2="517.39" y2="621.86"/><line class="cls-15" x1="548.37" y1="286.23" x2="548.37" y2="648.76"/><line class="cls-15" x1="580.73" y1="303.14" x2="580.73" y2="676.78"/><line class="cls-15" x1="613.03" y1="319.97" x2="613.03" y2="704.8"/><line class="cls-16" x1="452.54" y1="408.24" x2="632.49" y2="408.3"/><line class="cls-16" x1="449.19" y1="576.54" x2="632.49" y2="575.95"/><polyline class="cls-13" points="441.56 633.11 525.02 652.57 632.49 744.72"/><polygon class="cls-6" points="632.49 1003.39 632.49 744.72 525.02 652.57 440.31 632.78 435.51 954.53 632.49 1003.39"/><line class="cls-16" x1="439" y1="802.73" x2="632.49" y2="802.2"/><line class="cls-16" x1="499.11" y1="970.31" x2="632.49" y2="969.92"/><line class="cls-15" x1="469.97" y1="639.75" x2="471.16" y2="963.4"/><line class="cls-15" x1="502.33" y1="647.25" x2="502.33" y2="971.49"/><line class="cls-15" x1="534.63" y1="660.79" x2="534.63" y2="979.12"/><line class="cls-15" x1="566.92" y1="689.27" x2="566.92" y2="987.15"/><line class="cls-15" x1="599.21" y1="716.17" x2="599.21" y2="995.17"/><line class="cls-15" x1="632.49" y1="744.72" x2="632.49" y2="1003.39"/><polygon class="cls-6" points="587.44 1483.32 784.36 1483.32 778.37 1319.55 791.59 1321.72 800.54 1319.55 802.71 1301.66 800.54 1285.48 797.97 1261.61 800.54 1245.82 800.54 1232.6 787.78 1230.04 785.21 1200.18 784.36 1173.74 780.08 1157.1 778.37 1114.87 584.55 1114.87 587.44 1483.32"/><line class="cls-17" x1="412.03" y1="947.69" x2="412.29" y2="1253.39"/><line class="cls-15" x1="444.32" y1="956.7" x2="444.32" y2="1258.58"/><line class="cls-15" x1="476.62" y1="964.72" x2="476.62" y2="1263.91"/><line class="cls-15" x1="508.98" y1="972.55" x2="508.98" y2="1268.38"/><line class="cls-15" x1="541.27" y1="980.77" x2="541.27" y2="1274.5"/><line class="cls-16" x1="410.65" y1="1114.35" x2="584.48" y2="1113.82"/><line class="cls-15" x1="412.29" y1="1253.39" x2="413.81" y2="1743.18"/><line class="cls-15" x1="444.32" y1="1258.58" x2="444.32" y2="1747.98"/><line class="cls-15" x1="476.62" y1="1263.91" x2="476.62" y2="1753.18"/><line class="cls-15" x1="508.98" y1="1268.38" x2="508.98" y2="1758.31"/><line class="cls-15" x1="541.27" y1="1272.26" x2="541.27" y2="1763.11"/><line class="cls-16" x1="407.36" y1="1421.63" x2="586.98" y2="1421.1"/><line class="cls-16" x1="399.4" y1="1592.17" x2="585.6" y2="1591.64"/><line class="cls-18" x1="412.03" y1="947.69" x2="582.38" y2="990.96"/><line class="cls-13" x1="587.44" y1="1282.06" x2="585.6" y2="1591.64"/><polygon class="cls-6" points="564.75 1942.27 587.44 1560.14 783.5 1613.02 746.41 1966.01 564.75 1942.27"/><line class="cls-13" x1="587.44" y1="1560.14" x2="564.75" y2="1942.27"/><line class="cls-18" x1="394.54" y1="1740.09" x2="394.54" y2="2144.38"/><polygon class="cls-19" points="491.02 1755.41 576.06 1768.96 564.75 1879.72 491.02 1755.41"/><polygon class="cls-6" points="394.54 2144.38 394.54 1740.09 491.02 1755.41 563.43 1875.71 568.56 2139.25 394.54 2144.38"/><line class="cls-15" x1="413.02" y1="1740.09" x2="414.53" y2="2144.38"/><line class="cls-15" x1="450.83" y1="1747.65" x2="450.83" y2="2142.87"/><line class="cls-15" x1="476.62" y1="1753.18" x2="477.67" y2="2141.95"/><line class="cls-15" x1="509.96" y1="1786.92" x2="509.96" y2="2142.87"/><line class="cls-15" x1="542.26" y1="1840.59" x2="542.26" y2="2140.04"/><line class="cls-16" x1="394.54" y1="1908.39" x2="564.75" y2="1907.87"/><line class="cls-16" x1="393.22" y1="1907.8" x2="564.75" y2="1907.87"/><line class="cls-16" x1="394.54" y1="2076.11" x2="567.31" y2="2075.58"/><line class="cls-16" x1="568.43" y1="2134.32" x2="755.15" y2="2133.72"/><line class="cls-18" x1="381.78" y1="954.53" x2="384.28" y2="1248.78"/><line class="cls-15" x1="615.26" y1="1114.87" x2="615.26" y2="1483.32"/><line class="cls-15" x1="647.55" y1="1114.87" x2="647.55" y2="1483.32"/><line class="cls-15" x1="679.91" y1="1114.87" x2="679.91" y2="1483.32"/><line class="cls-15" x1="712.21" y1="1114.35" x2="712.21" y2="1483.32"/><line class="cls-15" x1="744.5" y1="1115.14" x2="744.5" y2="1483.65"/><line class="cls-15" x1="776.86" y1="1114.61" x2="776.86" y2="1483.65"/><line class="cls-16" x1="589.41" y1="1284.3" x2="776.86" y2="1284.36"/><line class="cls-16" x1="587.18" y1="1452.61" x2="776.86" y2="1452.01"/><line class="cls-15" x1="592.04" y1="1560.6" x2="592.04" y2="1947.53"/><line class="cls-15" x1="624.4" y1="1570.07" x2="624.4" y2="1950.03"/><line class="cls-15" x1="656.7" y1="1578.82" x2="656.7" y2="1954.3"/><line class="cls-15" x1="688.99" y1="1587.5" x2="688.99" y2="1958.51"/><line class="cls-15" x1="721.35" y1="1596.25" x2="721.35" y2="1962.72"/><line class="cls-15" x1="753.64" y1="1604.93" x2="753.64" y2="1897.28"/><line class="cls-16" x1="579.81" y1="1728.91" x2="771.4" y2="1728.32"/><line class="cls-16" x1="568.56" y1="1897.35" x2="753.64" y2="1897.28"/><line class="cls-15" x1="597.04" y1="1969.76" x2="597.04" y2="2266.84"/><line class="cls-15" x1="629.34" y1="1973.51" x2="629.34" y2="2278.88"/><line class="cls-15" x1="661.63" y1="1977.19" x2="661.63" y2="2284.8"/><line class="cls-15" x1="693.99" y1="1980.94" x2="693.99" y2="2293.81"/><line class="cls-15" x1="726.28" y1="1984.89" x2="726.28" y2="2302.75"/><line class="cls-15" x1="581.52" y1="2280.33" x2="581.52" y2="2730.59"/><line class="cls-15" x1="613.88" y1="2298.22" x2="613.88" y2="2702.18"/><line class="cls-15" x1="646.17" y1="2315.84" x2="646.17" y2="2673.7"/><line class="cls-15" x1="678.47" y1="2333.47" x2="678.47" y2="2645.29"/><line class="cls-15" x1="710.76" y1="2351.1" x2="710.76" y2="2764.46"/><line class="cls-15" x1="742.99" y1="2471.59" x2="742.53" y2="2769.59"/><polyline class="cls-15" points="775.41 2495.33 775.48 2618.12 757.92 2691.13 775.48 2719.21 775.41 2739.47"/><line class="cls-15" x1="516.93" y1="2533.02" x2="516.93" y2="2727.43"/><line class="cls-15" x1="549.23" y1="2404.63" x2="549.23" y2="2747.89"/><line class="cls-15" x1="484.9" y1="2659.56" x2="484.9" y2="2707.18"/><polyline class="cls-13" points="491.02 1753.18 564.75 1879.72 568.56 2139.25"/><polygon class="cls-20" points="349.81 2141.81 349.35 2162.27 413.74 2198.97 491.02 2218.57 522.46 2198.11 518.25 2142.87 349.81 2141.81"/><line class="cls-18" x1="176.64" y1="2154.71" x2="162.56" y2="2554.66"/><line class="cls-15" x1="208.93" y1="2159.37" x2="200.45" y2="2560.44"/><line class="cls-15" x1="241.29" y1="2166.54" x2="237.87" y2="2566.69"/><line class="cls-15" x1="273.58" y1="2173.78" x2="273.58" y2="2572.22"/><line class="cls-15" x1="305.88" y1="2180.95" x2="305.88" y2="2578.27"/><line class="cls-15" x1="338.3" y1="2187.39" x2="338.3" y2="2583.53"/><line class="cls-15" x1="370.59" y1="2194.63" x2="370.59" y2="2588.86"/><line class="cls-15" x1="403.61" y1="2202.72" x2="403.61" y2="2594.31"/><line class="cls-15" x1="437.22" y1="2210.22" x2="433.87" y2="2599.12"/><line class="cls-15" x1="469.71" y1="2217.45" x2="469.71" y2="2605.17"/><line class="cls-15" x1="502" y1="2224.62" x2="502" y2="2550.97"/><line class="cls-16" x1="172.69" y1="2323.8" x2="526.47" y2="2323.93"/><line class="cls-16" x1="164.67" y1="2492.11" x2="508.91" y2="2491.12"/><polygon class="cls-21" points="0.5 2795.18 0.5 3194.93 40.49 3184.41 43.91 2781.83 0.5 2795.18"/><line class="cls-15" x1="84.3" y1="2771.76" x2="75.81" y2="3172.31"/><line class="cls-15" x1="117.05" y1="2762.62" x2="113.69" y2="3157.31"/><line class="cls-15" x1="149.41" y1="2753.55" x2="149.41" y2="3147.12"/><line class="cls-15" x1="181.77" y1="2744.53" x2="181.77" y2="3136"/><line class="cls-15" x1="214.13" y1="2735.46" x2="214.13" y2="3124.95"/><line class="cls-15" x1="246.42" y1="2726.45" x2="246.42" y2="3073.85"/><line class="cls-16" x1="43.91" y1="2914.42" x2="264.31" y2="2914.55"/><line class="cls-16" x1="40.49" y1="3082.79" x2="245.76" y2="3082.13"/><line class="cls-16" x1="539.56" y1="2448.9" x2="730.62" y2="2448.96"/><line class="cls-16" x1="494.24" y1="2617.99" x2="775.48" y2="2618.12"/><line class="cls-15" x1="287.85" y1="2796.89" x2="285.09" y2="2926.92"/><line class="cls-15" x1="323.64" y1="2700.99" x2="321.6" y2="2943.49"/><line class="cls-15" x1="356.78" y1="2634.24" x2="356.78" y2="2959.47"/><line class="cls-15" x1="389.14" y1="2653.31" x2="389.14" y2="2974.21"/><line class="cls-15" x1="421.5" y1="2673.7" x2="421.5" y2="2986.83"/><line class="cls-15" x1="453.8" y1="2692.64" x2="453.14" y2="3003.34"/><line class="cls-15" x1="486.81" y1="2712.5" x2="486.81" y2="2920.27"/><line class="cls-15" x1="519.7" y1="2732.24" x2="518.71" y2="2844.64"/><line class="cls-16" x1="302.46" y1="2759.73" x2="552.91" y2="2759.79"/><line class="cls-16" x1="285.09" y1="2926.92" x2="484.9" y2="2927.31"/><line class="cls-15" x1="512.46" y1="2861.41" x2="507.46" y2="3096.47"/><line class="cls-15" x1="547.12" y1="2821.16" x2="544.82" y2="3090.16"/><line class="cls-15" x1="580.34" y1="2816.49" x2="580.34" y2="3084.11"/><line class="cls-15" x1="612.63" y1="2812.21" x2="612.63" y2="3078.65"/><line class="cls-15" x1="645.05" y1="2807.81" x2="645.05" y2="3073.19"/><line class="cls-15" x1="677.35" y1="2803.4" x2="677.35" y2="3067.73"/><line class="cls-15" x1="710.37" y1="2798.86" x2="710.37" y2="3062.21"/><line class="cls-16" x1="507.53" y1="2873.18" x2="736.94" y2="2873.25"/><line class="cls-16" x1="471.42" y1="3041.49" x2="735.82" y2="3040.63"/><line class="cls-15" x1="494.31" y1="3193.81" x2="483.26" y2="3666.9"/><line class="cls-15" x1="529.1" y1="3174.34" x2="525.16" y2="3633.55"/><line class="cls-15" x1="562.45" y1="3155.67" x2="562.45" y2="3603.89"/><line class="cls-15" x1="594.74" y1="3137.58" x2="594.74" y2="3578.18"/><line class="cls-15" x1="627.1" y1="3119.49" x2="627.1" y2="3552.39"/><line class="cls-15" x1="659.46" y1="3102.26" x2="659.46" y2="3526.68"/><line class="cls-15" x1="692.41" y1="3084.11" x2="692.41" y2="3500.43"/><line class="cls-15" x1="726.35" y1="3062.21" x2="725.49" y2="3474.13"/><line class="cls-15" x1="758.51" y1="3269.45" x2="758.51" y2="3475.38"/><line class="cls-16" x1="462.8" y1="3211.44" x2="757.72" y2="3211.24"/><line class="cls-16" x1="470.3" y1="3379.35" x2="766.47" y2="3378.5"/><line class="cls-16" x1="477.8" y1="3546.21" x2="635.52" y2="3545.75"/><polygon class="cls-22" points="444.85 0 695.63 0 695.63 173.17 602.7 173.17 444.85 45.32 444.85 0"/><polygon class="cls-23" points="679.45 208.89 679.45 238.02 396.64 238.02 412.29 51.23 595 208.16 679.45 208.89"/><polygon class="cls-24" points="455.96 238.02 638.48 238.02 632.49 330.17 455.96 238.02"/><polygon class="cls-25" points="632.56 617.58 658.08 621.86 679.45 238.02 638.48 238.02 632.56 617.58"/><polygon class="cls-26" points="412.29 947.69 412.29 621.86 412.16 284.06 396.64 238.02 324.62 621.86 330.34 956.7 412.29 947.69"/><path class="cls-26" d="M349.81,1298.83V954.52C-23.83,1024.7,282.79,1289.56,349.81,1298.83Z"/><path class="cls-27" d="M771.53,3475.84c-54.39-394.62-37.62-915.39,29-899.61,43.74,10.39,387.26,19.4,400,33.35s43.48,223.09,12.82,263.61S1076.9,2962.05,1075.19,2979s58,39.86,69.06,69.78,22.56,176.4,0,219.48c-21,40.19-171.46,162.19-171.46,162.19C902.28,3486.56,834.8,3506.75,771.53,3475.84Z"/><polygon class="cls-28" points="737.4 2996.76 737.4 2960 737.4 2960 914.85 2781.83 950.69 2781.83 932.73 2914.49 901.16 2920.27 896.1 3073.19 860.26 3073.85 867.1 2930.2 898.67 2900.15 737.4 2996.76"/><path class="cls-29" d="M1075.19,2978.94l151.4-183.76c20.78,46,15.06,128.65,7.24,172.32S1204.17,3099,1155.76,3130Z"/><polygon class="cls-30" points="1155.76 3129.95 1172.47 3116.14 1165.63 3476.89 783.5 3592.78 771.53 3881.44 722.07 3876.71 742.72 3595.87 574.09 3593.3 725.49 3474.13 771.53 3475.84 1155.76 3129.95"/><polyline class="cls-31" points="184.92 4008.12 189.46 3915.97 204.26 3890.39 152.96 3888.68 262.93 3789.76 356.32 3698.34 388.09 3621.19 443.4 3625.73 336.33 3770.95 274.04 3938.14 238.79 3936.43 225.37 4008.12 184.92 4008.12"/><polyline class="cls-32" points="475.37 3033.14 473 3102.26 488.78 3099.56 519.17 3179.87 462.8 3211.44 462.8 3164.81 240.04 3163.16 240.5 3115.87 258.06 3003.34 421.5 2986.83 475.37 3033.14"/><polygon class="cls-33" points="263.26 2916.98 258.06 3003.34 421.5 2988.94 263.26 2916.98"/><polyline class="cls-34" points="473 2955.79 453.14 3003.34 426.63 2991.24 475.37 3033.14 473 2955.79"/><polygon class="cls-35" points="494.51 3114.76 513.91 3165.99 677.35 3073.19 674.13 3072.2 494.51 3114.76"/><polygon class="cls-36" points="739.04 3056.81 494.51 3114.76 488.78 3099.56 739.04 3056.81"/><polygon class="cls-37" points="519.17 3179.87 513.91 3165.99 679.32 3071.02 739.04 3056.81 519.17 3179.87"/><polygon class="cls-38" points="40.49 3184.41 240.5 3115.87 240.04 3163.16 409.79 3164.41 407.56 3238.14 369.48 3238.14 389.14 3407.11 349.81 3569.1 115.4 3801.14 58.91 3803.37 77.26 3629.74 40.49 3629.74 39.83 3552.39 85.74 3545.22 115.4 3506.55 115.4 3475.38 85.74 3475.38 85.74 3403.95 68.71 3403.95 66.41 3254.06 39.11 3255.24 40.49 3184.41"/><polygon class="cls-39" points="115.4 3896.64 388.09 3621.19 379.61 3513.39 443.4 3419.14 441.82 3324.56 397.36 3269.45 409.79 3255.24 443.4 3252.94 443.4 3165.99 409.79 3164.41 407.56 3238.14 379.61 3238.14 373.16 3269.84 380.86 3335.94 387.23 3414.74 340.6 3578.18 115.4 3801.14 115.4 3896.64"/><polygon class="cls-40" points="388.09 3621.19 484.18 3628.23 462.8 3211.44 462.8 3164.81 443.4 3165.99 443.4 3252.94 409.79 3255.24 397.36 3269.45 441.82 3324.56 443.4 3419.14 379.61 3513.39 388.09 3621.19"/><polygon class="cls-41" points="275.1 2718.42 267.8 2861.87 349.35 2629.7 287.07 2633.12 142.04 2554.52 131.65 2620.62 12.41 2769.59 251.22 2704.81 275.1 2718.42"/><polygon class="cls-42" points="469.71 2704.81 496.48 2609.57 338.3 2583.53 349.35 2629.7 469.71 2704.81"/><polygon class="cls-43" points="528.18 2823.72 744.3 2795.18 742.53 2769.59 709.25 2769.59 706.75 2631.41 678.47 2645.29 556.99 2754.73 528.18 2823.72"/><polygon class="cls-44" points="496.48 2605.17 581.52 2280.33 730.62 2361.88 742.53 2307.29 564.75 2257.83 564.75 2139.25 519.63 2139.25 487.93 2221.53 536.14 2232.25 496.48 2605.17"/><line class="cls-17" x1="176.18" y1="2152.07" x2="487.93" y2="2221.53"/></g></g></svg>